<?xml version="1.0" encoding="UTF-8"?>
<svg id="ornament1" data-name="Layer 2" xmlns="http://www.w3.org/2000/svg" viewBox="0 0 116.67 116.67">
  <g id="Layer_1-2" data-name="Layer 1">
    <g>
      <rect class="cls-1" x="55.56" y="55.56" width="5.56" height="5.56"/>
      <rect class="cls-1" x="50" y="50" width="5.56" height="5.56"/>
      <rect class="cls-1" x="61.11" y="50" width="5.56" height="5.56"/>
      <rect class="cls-1" x="50" y="61.11" width="5.56" height="5.56"/>
      <rect class="cls-1" x="61.11" y="61.11" width="5.56" height="5.56"/>
      <g>
        <rect class="cls-1" y="38.89" width="5.56" height="5.56"/>
        <rect class="cls-1" y="72.22" width="5.56" height="5.56"/>
        <rect class="cls-1" x="11.11" y="61.11" width="5.56" height="5.56"/>
        <rect class="cls-1" x="5.56" y="44.44" width="5.56" height="5.56"/>
        <rect class="cls-1" x="5.56" y="66.67" width="5.56" height="5.56"/>
        <rect class="cls-1" x="16.67" y="55.56" width="5.56" height="5.56"/>
        <rect class="cls-1" x="11.11" y="50" width="5.56" height="5.56"/>
      </g>
      <g>
        <rect class="cls-1" x="111.11" y="38.89" width="5.56" height="5.56"/>
        <rect class="cls-1" x="111.11" y="72.22" width="5.56" height="5.56"/>
        <rect class="cls-1" x="100" y="61.11" width="5.56" height="5.56"/>
        <rect class="cls-1" x="105.56" y="44.44" width="5.56" height="5.56"/>
        <rect class="cls-1" x="105.56" y="66.67" width="5.56" height="5.56"/>
        <rect class="cls-1" x="94.44" y="55.56" width="5.56" height="5.56"/>
        <rect class="cls-1" x="100" y="50" width="5.56" height="5.56"/>
      </g>
      <g>
        <polygon class="cls-1" points="44.44 22.22 44.44 16.67 38.89 16.67 38.89 11.11 33.33 11.11 33.33 5.56 27.78 5.56 27.78 0 22.22 0 22.22 22.22 27.78 22.22 27.78 27.78 33.33 27.78 33.33 33.33 38.89 33.33 38.89 38.89 44.44 38.89 44.44 44.44 50 44.44 50 22.22 44.44 22.22"/>
        <polygon class="cls-1" points="38.89 38.89 33.33 38.89 33.33 33.33 27.78 33.33 27.78 27.78 22.22 27.78 22.22 22.22 0 22.22 0 27.78 5.56 27.78 5.56 33.33 11.11 33.33 11.11 38.89 16.67 38.89 16.67 44.44 22.22 44.44 22.22 50 44.44 50 44.44 44.44 38.89 44.44 38.89 38.89"/>
      </g>
      <g>
        <polygon class="cls-1" points="72.22 22.22 72.22 16.67 77.78 16.67 77.78 11.11 83.33 11.11 83.33 5.56 88.89 5.56 88.89 0 94.44 0 94.44 22.22 88.89 22.22 88.89 27.78 83.33 27.78 83.33 33.33 77.78 33.33 77.78 38.89 72.22 38.89 72.22 44.44 66.67 44.44 66.67 22.22 72.22 22.22"/>
        <polygon class="cls-1" points="77.78 38.89 83.33 38.89 83.33 33.33 88.89 33.33 88.89 27.78 94.44 27.78 94.44 22.22 116.67 22.22 116.67 27.78 111.11 27.78 111.11 33.33 105.56 33.33 105.56 38.89 100 38.89 100 44.44 94.44 44.44 94.44 50 72.22 50 72.22 44.44 77.78 44.44 77.78 38.89"/>
      </g>
      <g>
        <polygon class="cls-1" points="44.44 94.44 44.44 100 38.89 100 38.89 105.56 33.33 105.56 33.33 111.11 27.78 111.11 27.78 116.67 22.22 116.67 22.22 94.44 27.78 94.44 27.78 88.89 33.33 88.89 33.33 83.33 38.89 83.33 38.89 77.78 44.44 77.78 44.44 72.22 50 72.22 50 94.44 44.44 94.44"/>
        <polygon class="cls-1" points="38.89 77.78 33.33 77.78 33.33 83.33 27.78 83.33 27.78 88.89 22.22 88.89 22.22 94.44 0 94.44 0 88.89 5.56 88.89 5.56 83.33 11.11 83.33 11.11 77.78 16.67 77.78 16.67 72.22 22.22 72.22 22.22 66.67 44.44 66.67 44.44 72.22 38.89 72.22 38.89 77.78"/>
      </g>
      <g>
        <polygon class="cls-1" points="72.22 94.44 72.22 100 77.78 100 77.78 105.56 83.33 105.56 83.33 111.11 88.89 111.11 88.89 116.67 94.44 116.67 94.44 94.44 88.89 94.44 88.89 88.89 83.33 88.89 83.33 83.33 77.78 83.33 77.78 77.78 72.22 77.78 72.22 72.22 66.67 72.22 66.67 94.44 72.22 94.44"/>
        <polygon class="cls-1" points="77.78 77.78 83.33 77.78 83.33 83.33 88.89 83.33 88.89 88.89 94.44 88.89 94.44 94.44 116.67 94.44 116.67 88.89 111.11 88.89 111.11 83.33 105.56 83.33 105.56 77.78 100 77.78 100 72.22 94.44 72.22 94.44 66.67 72.22 66.67 72.22 72.22 77.78 72.22 77.78 77.78"/>
      </g>
      <g>
        <rect class="cls-1" x="72.22" width="5.56" height="5.56"/>
        <rect class="cls-1" x="38.89" width="5.56" height="5.56"/>
        <rect class="cls-1" x="50" y="11.11" width="5.56" height="5.56"/>
        <rect class="cls-1" x="66.67" y="5.56" width="5.56" height="5.56"/>
        <rect class="cls-1" x="44.44" y="5.56" width="5.56" height="5.56"/>
        <rect class="cls-1" x="55.56" y="16.67" width="5.56" height="5.56"/>
        <rect class="cls-1" x="61.11" y="11.11" width="5.56" height="5.56"/>
      </g>
      <g>
        <rect class="cls-1" x="72.22" y="111.11" width="5.56" height="5.56"/>
        <rect class="cls-1" x="38.89" y="111.11" width="5.56" height="5.56"/>
        <rect class="cls-1" x="50" y="100" width="5.56" height="5.56"/>
        <rect class="cls-1" x="66.67" y="105.56" width="5.56" height="5.56"/>
        <rect class="cls-1" x="44.44" y="105.56" width="5.56" height="5.56"/>
        <rect class="cls-1" x="55.56" y="94.44" width="5.56" height="5.56"/>
        <rect class="cls-1" x="61.11" y="100" width="5.56" height="5.56"/>
      </g>
    </g>
  </g>
</svg>