<?xml version="1.0" encoding="UTF-8"?>
<svg fill="currentcolor" id="ornament2" data-name="Layer 2" xmlns="http://www.w3.org/2000/svg" viewBox="0 0 116.67 116.67">
  <defs>
    <style>
      .cls-1 {
        fill: rgba(255,255,255,0.1);
      }
    </style>
  </defs>
  <g id="Layer_1-2" data-name="Layer 1">
    <g>
      <g>
        <polygon class="cls-1" points="22.22 0 22.22 16.67 16.67 16.67 16.67 22.22 0 22.22 0 27.78 27.78 27.78 27.78 0 22.22 0"/>
        <polygon class="cls-1" points="33.33 0 33.33 27.78 27.78 27.78 27.78 33.33 0 33.33 0 38.89 38.89 38.89 38.89 0 33.33 0"/>
        <polygon class="cls-1" points="44.44 0 44.44 38.89 38.89 38.89 38.89 44.44 0 44.44 0 50 50 50 50 0 44.44 0"/>
        <rect class="cls-1" x="11.11" y="11.11" width="5.56" height="5.56"/>
        <rect class="cls-1" x="5.56" y="5.56" width="5.56" height="5.56"/>
        <rect class="cls-1" width="5.56" height="5.56"/>
      </g>
      <g>
        <polygon class="cls-1" points="94.44 116.67 94.44 100 100 100 100 94.44 116.67 94.44 116.67 88.89 88.89 88.89 88.89 116.67 94.44 116.67"/>
        <polygon class="cls-1" points="83.33 116.67 83.33 88.89 88.89 88.89 88.89 83.33 116.67 83.33 116.67 77.78 77.78 77.78 77.78 116.67 83.33 116.67"/>
        <polygon class="cls-1" points="72.22 116.67 72.22 77.78 77.78 77.78 77.78 72.22 116.67 72.22 116.67 66.67 66.67 66.67 66.67 116.67 72.22 116.67"/>
        <rect class="cls-1" x="100" y="100" width="5.56" height="5.56"/>
        <rect class="cls-1" x="105.56" y="105.56" width="5.56" height="5.56"/>
        <rect class="cls-1" x="111.11" y="111.11" width="5.56" height="5.56"/>
      </g>
      <rect class="cls-1" x="50" y="50" width="16.67" height="16.67"/>
      <g>
        <polygon class="cls-1" points="94.44 0 94.44 16.67 100 16.67 100 22.22 116.67 22.22 116.67 27.78 88.89 27.78 88.89 0 94.44 0"/>
        <polygon class="cls-1" points="83.33 0 83.33 27.78 88.89 27.78 88.89 33.33 116.67 33.33 116.67 38.89 77.78 38.89 77.78 0 83.33 0"/>
        <polygon class="cls-1" points="72.22 0 72.22 38.89 77.78 38.89 77.78 44.44 116.67 44.44 116.67 50 66.67 50 66.67 0 72.22 0"/>
        <rect class="cls-1" x="100" y="11.11" width="5.56" height="5.56"/>
        <rect class="cls-1" x="105.56" y="5.56" width="5.56" height="5.56"/>
        <rect class="cls-1" x="111.11" width="5.56" height="5.56"/>
      </g>
      <g>
        <polygon class="cls-1" points="22.22 116.67 22.22 100 16.67 100 16.67 94.44 0 94.44 0 88.89 27.78 88.89 27.78 116.67 22.22 116.67"/>
        <polygon class="cls-1" points="33.33 116.67 33.33 88.89 27.78 88.89 27.78 83.33 0 83.33 0 77.78 38.89 77.78 38.89 116.67 33.33 116.67"/>
        <polygon class="cls-1" points="44.44 116.67 44.44 77.78 38.89 77.78 38.89 72.22 0 72.22 0 66.67 50 66.67 50 116.67 44.44 116.67"/>
        <rect class="cls-1" x="11.11" y="100" width="5.56" height="5.56"/>
        <rect class="cls-1" x="5.56" y="105.56" width="5.56" height="5.56"/>
        <rect class="cls-1" y="111.11" width="5.56" height="5.56"/>
      </g>
    </g>
  </g>
</svg>